<svg width="176" height="39" viewBox="0 0 176 39" fill="none" xmlns="http://www.w3.org/2000/svg">
<path d="M17.928 12.136C17.76 11.968 17.448 11.74 16.992 11.452C16.56 11.164 16.02 10.888 15.372 10.624C14.748 10.336 14.064 10.096 13.32 9.904C12.576 9.712 11.82 9.616 11.052 9.616C9.684 9.616 8.664 9.868 7.992 10.372C7.32 10.876 6.984 11.584 6.984 12.496C6.984 13.024 7.104 13.468 7.344 13.828C7.608 14.164 7.98 14.464 8.46 14.728C8.94 14.992 9.54 15.232 10.26 15.448C11.004 15.664 11.856 15.892 12.816 16.132C14.064 16.468 15.192 16.828 16.2 17.212C17.232 17.596 18.096 18.076 18.792 18.652C19.512 19.228 20.064 19.924 20.448 20.74C20.832 21.532 21.024 22.516 21.024 23.692C21.024 25.06 20.76 26.236 20.232 27.22C19.728 28.18 19.044 28.96 18.18 29.56C17.316 30.16 16.308 30.604 15.156 30.892C14.004 31.156 12.804 31.288 11.556 31.288C9.636 31.288 7.74 31 5.868 30.424C3.996 29.848 2.316 29.032 0.828 27.976L3.024 23.692C3.24 23.908 3.624 24.196 4.176 24.556C4.752 24.892 5.424 25.24 6.192 25.6C6.96 25.936 7.812 26.224 8.748 26.464C9.684 26.704 10.644 26.824 11.628 26.824C14.364 26.824 15.732 25.948 15.732 24.196C15.732 23.62 15.576 23.14 15.264 22.756C14.952 22.372 14.508 22.036 13.932 21.748C13.356 21.46 12.66 21.196 11.844 20.956C11.028 20.716 10.116 20.464 9.108 20.2C7.884 19.864 6.816 19.504 5.904 19.12C5.016 18.712 4.272 18.244 3.672 17.716C3.072 17.188 2.616 16.564 2.304 15.844C2.016 15.124 1.872 14.272 1.872 13.288C1.872 11.992 2.112 10.84 2.592 9.832C3.072 8.824 3.732 7.984 4.572 7.312C5.436 6.64 6.432 6.136 7.56 5.8C8.688 5.44 9.9 5.26 11.196 5.26C12.996 5.26 14.652 5.548 16.164 6.124C17.676 6.676 18.996 7.336 20.124 8.104L17.928 12.136ZM41.735 31H36.911V20.416C36.911 18.928 36.635 17.836 36.083 17.14C35.531 16.42 34.751 16.06 33.743 16.06C33.311 16.06 32.855 16.156 32.375 16.348C31.895 16.54 31.439 16.816 31.007 17.176C30.575 17.512 30.179 17.92 29.819 18.4C29.459 18.88 29.195 19.408 29.027 19.984V31H24.203V4.72H29.027V15.628C29.723 14.404 30.659 13.468 31.835 12.82C33.035 12.148 34.355 11.812 35.795 11.812C37.019 11.812 38.015 12.028 38.783 12.46C39.551 12.868 40.151 13.42 40.583 14.116C41.015 14.812 41.315 15.604 41.483 16.492C41.651 17.38 41.735 18.292 41.735 19.228V31Z" fill="white"/>
<path d="M62.5 3.91666C64.4151 3.91666 66.3115 4.29387 68.0808 5.02675C69.8502 5.75963 71.4578 6.83383 72.812 8.18802C74.1662 9.5422 75.2404 11.1499 75.9733 12.9192C76.7061 14.6885 77.0834 16.5849 77.0834 18.5C77.0834 22.3677 75.5469 26.0771 72.812 28.812C70.0771 31.5469 66.3678 33.0833 62.5 33.0833C60.5849 33.0833 58.6886 32.7061 56.9192 31.9732C55.1499 31.2403 53.5422 30.1661 52.188 28.812C49.4531 26.0771 47.9167 22.3677 47.9167 18.5C47.9167 14.6322 49.4531 10.9229 52.188 8.18802C54.923 5.45311 58.6323 3.91666 62.5 3.91666ZM62.5 6.83332C61.5331 6.83332 60.6058 7.21744 59.922 7.90116C59.2383 8.58489 58.8542 9.51222 58.8542 10.4792C58.8542 11.4461 59.2383 12.3734 59.922 13.0571C60.6058 13.7409 61.5331 14.125 62.5 14.125C63.467 14.125 64.3943 13.7409 65.078 13.0571C65.7617 12.3734 66.1459 11.4461 66.1459 10.4792C66.1459 9.51222 65.7617 8.58489 65.078 7.90116C64.3943 7.21744 63.467 6.83332 62.5 6.83332ZM51.4167 14.8979C51.1176 15.8165 51.1954 16.8162 51.6329 17.6776C52.0704 18.5389 52.8318 19.1913 53.75 19.4917C55.675 20.1042 57.7313 19.0687 58.3438 17.1437C58.6428 16.2251 58.565 15.2254 58.1276 14.3641C57.6901 13.5028 56.9286 12.8503 56.0104 12.55C54.1 11.9375 52.0292 12.9729 51.4167 14.8979ZM73.5979 14.8542C72.9709 12.9729 70.9146 11.9375 69.0042 12.55C68.547 12.6954 68.1232 12.9299 67.7572 13.2401C67.3913 13.5503 67.0904 13.93 66.8721 14.3571C66.6537 14.7843 66.5222 15.2505 66.4852 15.7288C66.4482 16.2071 66.5063 16.688 66.6563 17.1437C66.9566 18.0619 67.6091 18.8234 68.4704 19.2609C69.3317 19.6984 70.3314 19.7761 71.25 19.4771C73.1604 18.8646 74.2104 16.7937 73.5979 14.8542ZM55.6604 27.9208C57.2792 29.1167 59.5834 28.7521 60.75 27.1187C61.9313 25.4854 61.5667 23.2104 59.9334 22.0292C59.1511 21.4635 58.1768 21.2304 57.2232 21.3807C56.2696 21.531 55.4142 22.0524 54.8438 22.8312C53.6625 24.4646 54.0271 26.7396 55.6604 27.9208ZM69.3542 27.9208C70.9875 26.7396 71.3521 24.4646 70.1709 22.8312C69.8906 22.4428 69.5362 22.1136 69.1281 21.8628C68.72 21.612 68.2663 21.4445 67.7931 21.3699C67.32 21.2954 66.8367 21.3152 66.3713 21.4284C65.9058 21.5415 65.4674 21.7457 65.0813 22.0292C64.6931 22.3094 64.364 22.6635 64.1128 23.0711C63.8616 23.4787 63.6933 23.9318 63.6174 24.4046C63.5416 24.8773 63.5597 25.3604 63.6707 25.8261C63.7818 26.2918 63.9836 26.7311 64.2646 27.1187C65.4167 28.7521 67.7354 29.1021 69.3542 27.9208ZM62.5 16.3125C61.9199 16.3125 61.3635 16.543 60.9532 16.9532C60.543 17.3634 60.3125 17.9198 60.3125 18.5C60.3125 19.0801 60.543 19.6365 60.9532 20.0468C61.3635 20.457 61.9199 20.6875 62.5 20.6875C63.0802 20.6875 63.6366 20.457 64.0468 20.0468C64.4571 19.6365 64.6875 19.0801 64.6875 18.5C64.6875 17.9198 64.4571 17.3634 64.0468 16.9532C63.6366 16.543 63.0802 16.3125 62.5 16.3125Z" fill="white"/>
<path d="M94.428 31.36C92.964 31.36 91.68 31.036 90.576 30.388C89.472 29.716 88.608 28.816 87.984 27.688V38.668H83.16V12.136H87.372V15.376C88.068 14.272 88.968 13.408 90.072 12.784C91.176 12.136 92.448 11.812 93.888 11.812C95.16 11.812 96.336 12.076 97.416 12.604C98.496 13.108 99.42 13.804 100.188 14.692C100.98 15.556 101.592 16.588 102.024 17.788C102.48 18.964 102.708 20.212 102.708 21.532C102.708 22.9 102.504 24.184 102.096 25.384C101.688 26.584 101.112 27.628 100.368 28.516C99.648 29.404 98.772 30.1 97.74 30.604C96.732 31.108 95.628 31.36 94.428 31.36ZM92.844 27.256C93.564 27.256 94.224 27.1 94.824 26.788C95.448 26.476 95.976 26.056 96.408 25.528C96.84 25 97.176 24.388 97.416 23.692C97.656 22.996 97.776 22.276 97.776 21.532C97.776 20.74 97.644 20.008 97.38 19.336C97.116 18.64 96.744 18.04 96.264 17.536C95.808 17.032 95.256 16.636 94.608 16.348C93.984 16.06 93.3 15.916 92.556 15.916C92.1 15.916 91.632 16 91.152 16.168C90.672 16.312 90.228 16.528 89.82 16.816C89.412 17.104 89.04 17.44 88.704 17.824C88.392 18.208 88.152 18.628 87.984 19.084V23.512C88.416 24.592 89.076 25.492 89.964 26.212C90.852 26.908 91.812 27.256 92.844 27.256ZM117.174 31.36C115.71 31.36 114.426 31.036 113.322 30.388C112.218 29.716 111.354 28.816 110.73 27.688V38.668H105.906V12.136H110.118V15.376C110.814 14.272 111.714 13.408 112.818 12.784C113.922 12.136 115.194 11.812 116.634 11.812C117.906 11.812 119.082 12.076 120.162 12.604C121.242 13.108 122.166 13.804 122.934 14.692C123.726 15.556 124.338 16.588 124.77 17.788C125.226 18.964 125.454 20.212 125.454 21.532C125.454 22.9 125.25 24.184 124.842 25.384C124.434 26.584 123.858 27.628 123.114 28.516C122.394 29.404 121.518 30.1 120.486 30.604C119.478 31.108 118.374 31.36 117.174 31.36ZM115.59 27.256C116.31 27.256 116.97 27.1 117.57 26.788C118.194 26.476 118.722 26.056 119.154 25.528C119.586 25 119.922 24.388 120.162 23.692C120.402 22.996 120.522 22.276 120.522 21.532C120.522 20.74 120.39 20.008 120.126 19.336C119.862 18.64 119.49 18.04 119.01 17.536C118.554 17.032 118.002 16.636 117.354 16.348C116.73 16.06 116.046 15.916 115.302 15.916C114.846 15.916 114.378 16 113.898 16.168C113.418 16.312 112.974 16.528 112.566 16.816C112.158 17.104 111.786 17.44 111.45 17.824C111.138 18.208 110.898 18.628 110.73 19.084V23.512C111.162 24.592 111.822 25.492 112.71 26.212C113.598 26.908 114.558 27.256 115.59 27.256ZM128.652 31V12.136H133.476V31H128.652ZM128.652 9.508V4.72H133.476V9.508H128.652ZM146.542 31.36C145.03 31.36 143.662 31.108 142.438 30.604C141.214 30.076 140.17 29.368 139.306 28.48C138.442 27.592 137.77 26.56 137.29 25.384C136.834 24.208 136.606 22.972 136.606 21.676C136.606 20.332 136.834 19.072 137.29 17.896C137.746 16.696 138.406 15.652 139.27 14.764C140.134 13.852 141.178 13.132 142.402 12.604C143.65 12.076 145.042 11.812 146.578 11.812C148.114 11.812 149.482 12.076 150.682 12.604C151.906 13.132 152.938 13.84 153.778 14.728C154.642 15.616 155.29 16.648 155.722 17.824C156.178 19 156.406 20.224 156.406 21.496C156.406 21.808 156.394 22.108 156.37 22.396C156.37 22.684 156.346 22.924 156.298 23.116H141.718C141.79 23.86 141.97 24.52 142.258 25.096C142.546 25.672 142.918 26.164 143.374 26.572C143.83 26.98 144.346 27.292 144.922 27.508C145.498 27.724 146.098 27.832 146.722 27.832C147.682 27.832 148.582 27.604 149.422 27.148C150.286 26.668 150.874 26.044 151.186 25.276L155.326 26.428C154.63 27.868 153.514 29.056 151.978 29.992C150.466 30.904 148.654 31.36 146.542 31.36ZM151.438 19.984C151.318 18.568 150.79 17.44 149.854 16.6C148.942 15.736 147.826 15.304 146.506 15.304C145.858 15.304 145.246 15.424 144.67 15.664C144.118 15.88 143.626 16.192 143.194 16.6C142.762 17.008 142.402 17.5 142.114 18.076C141.85 18.652 141.694 19.288 141.646 19.984H151.438ZM166.796 31.36C166.028 31.36 165.224 31.3 164.384 31.18C163.568 31.06 162.764 30.892 161.972 30.676C161.18 30.46 160.424 30.196 159.704 29.884C158.984 29.572 158.348 29.224 157.796 28.84L159.74 25.564C162.14 27.124 164.456 27.904 166.688 27.904C167.696 27.904 168.488 27.724 169.064 27.364C169.64 27.004 169.928 26.488 169.928 25.816C169.928 25.144 169.58 24.652 168.884 24.34C168.212 24.004 167.072 23.644 165.464 23.26C164.24 22.972 163.196 22.672 162.332 22.36C161.468 22.048 160.772 21.688 160.244 21.28C159.716 20.872 159.332 20.404 159.092 19.876C158.852 19.348 158.732 18.724 158.732 18.004C158.732 17.044 158.924 16.18 159.308 15.412C159.692 14.644 160.22 13.996 160.892 13.468C161.588 12.916 162.392 12.496 163.304 12.208C164.24 11.92 165.248 11.776 166.328 11.776C167.672 11.776 169.004 11.992 170.324 12.424C171.668 12.832 172.916 13.396 174.068 14.116L172.088 17.104C171.032 16.432 170.036 15.952 169.1 15.664C168.164 15.352 167.228 15.196 166.292 15.196C165.428 15.196 164.696 15.364 164.096 15.7C163.52 16.036 163.232 16.576 163.232 17.32C163.232 17.968 163.508 18.436 164.06 18.724C164.636 19.012 165.644 19.336 167.084 19.696C168.428 20.032 169.568 20.368 170.504 20.704C171.464 21.04 172.244 21.424 172.844 21.856C173.468 22.288 173.912 22.792 174.176 23.368C174.464 23.92 174.608 24.592 174.608 25.384C174.608 26.296 174.416 27.124 174.032 27.868C173.672 28.612 173.156 29.248 172.484 29.776C171.812 30.28 170.984 30.676 170 30.964C169.04 31.228 167.972 31.36 166.796 31.36Z" fill="white"/>
</svg>
